<?xml version="1.0" encoding="utf-8"?>
<!-- Generator: Adobe Illustrator 26.0.1, SVG Export Plug-In . SVG Version: 6.00 Build 0)  -->
<svg version="1.1" id="Camada_1" xmlns="http://www.w3.org/2000/svg" xmlns:xlink="http://www.w3.org/1999/xlink" x="0px" y="0px"
	 viewBox="0 0 1200 100" style="enable-background:new 0 0 1200 100;" xml:space="preserve">
<style type="text/css">
	.st0{fill:#FFFFFF;}
</style>
<g>
	<g>
		<g>
			<polygon class="st0" points="1.9,4.3 1.8,2.6 101.7,-1.7 337.5,-298.8 338.1,-298.3 706.3,-58.3 859,-172.2 1024.7,-15.4 
				1199.3,-98.1 1200,-96.6 1024.4,-13.4 1024,-13.8 858.9,-170 706.3,-56.2 705.8,-56.6 337.8,-296.5 102.6,0 			"/>
		</g>
		<g>
			<polygon class="st0" points="2,14.1 1.9,12.5 99.2,5.4 333,-286.5 486.4,-198.6 703.7,-55.3 857.4,-155.6 880.1,-134.3 
				987.4,-45.5 1024,-11.7 1199.2,-83.8 1199.9,-82.2 1023.7,-9.8 986.3,-44.2 879,-133 857.2,-153.4 703.7,-53.3 703.3,-53.6 
				485.5,-197.2 333.4,-284.3 100.1,7 			"/>
		</g>
		<g>
			<polygon class="st0" points="2.2,24 2,22.3 96.7,12.5 328.5,-274.2 483.1,-197.7 701.2,-52.3 855.7,-138.9 878.7,-117.7 
				985.9,-41.5 1023.3,-8.1 1199.2,-69.4 1199.8,-67.8 1022.9,-6.2 984.9,-40.2 877.7,-116.4 855.5,-136.9 701.1,-50.3 
				482.2,-196.3 328.9,-272.1 97.6,14.1 97.2,14.1 			"/>
		</g>
		<g>
			<polygon class="st0" points="2.3,33.8 2.1,32.1 94.2,19.6 323.9,-261.9 479.8,-196.8 698.6,-49.2 854.1,-122.3 877.2,-101.1 
				984.4,-37.6 1022.5,-4.4 1199.2,-55 1199.6,-53.4 1022.1,-2.6 1021.8,-2.9 983.5,-36.3 876.2,-99.8 853.8,-120.3 698.5,-47.3 
				479,-195.3 324.4,-259.8 95.1,21.2 94.7,21.2 			"/>
		</g>
		<g>
			<polygon class="st0" points="2.5,43.6 2.2,42 91.7,26.7 319.4,-249.6 320,-249.4 476.6,-195.9 476.6,-195.8 696.1,-46.2 
				852.4,-105.6 875.8,-84.5 983,-33.7 983.1,-33.6 1021.8,-0.8 1199.1,-40.6 1199.5,-39 1021.4,1.1 982.1,-32.2 874.8,-83.1 
				852,-103.7 695.9,-44.4 695.5,-44.6 475.8,-194.4 320,-247.6 92.6,28.3 			"/>
		</g>
		<g>
			<polygon class="st0" points="2.6,53.5 2.3,51.8 89.2,33.8 314.9,-237.3 473.4,-194.9 693.6,-43.2 850.7,-89 874.3,-67.9 
				981.6,-29.7 981.7,-29.6 1021.1,2.9 1199.1,-26.2 1199.4,-24.6 1020.6,4.7 1020.3,4.4 980.7,-28.3 873.5,-66.4 873.3,-66.5 
				850.3,-87.1 693.3,-41.4 693,-41.6 472.6,-193.4 315.5,-235.4 90.1,35.3 89.8,35.4 			"/>
		</g>
		<g>
			<polygon class="st0" points="2.8,63.3 2.4,61.7 86.6,40.9 310.4,-225 310.9,-224.9 470,-194.1 470.1,-194 691,-40.2 849.1,-72.3 
				872.9,-51.3 980.1,-25.8 1020.3,6.5 1199.1,-11.8 1199.3,-10.2 1019.8,8.3 979.4,-24.3 872.1,-49.8 848.6,-70.5 690.7,-38.4 
				690.4,-38.6 469.3,-192.5 311,-223.1 87.6,42.4 87.3,42.5 			"/>
		</g>
		<g>
			<polygon class="st0" points="3,73.1 2.5,71.5 84.1,48 305.9,-212.7 306.3,-212.6 466.7,-193.2 466.9,-193 688.5,-37.2 
				847.4,-55.7 871.4,-34.7 978.7,-21.9 1019.6,10.2 1199.1,2.6 1199.1,4.2 1019.1,11.9 978,-20.3 870.7,-33.1 846.9,-53.9 
				688.1,-35.5 687.8,-35.6 466.1,-191.6 306.6,-210.9 85.1,49.5 			"/>
		</g>
		<g>
			<polygon class="st0" points="3.1,83 2.6,81.4 81.6,55.1 301.4,-200.4 463.4,-192.3 463.6,-192.1 686,-34.2 845.8,-39 870,-18.1 
				977.2,-18 977.4,-17.8 1018.9,13.8 1199,17 1199,18.6 1018.3,15.5 976.6,-16.3 869.3,-16.5 845.2,-37.3 685.4,-32.5 
				462.8,-190.6 302.1,-198.7 82.6,56.5 82.4,56.6 			"/>
		</g>
		<g>
			<polygon class="st0" points="3.3,92.8 2.7,91.2 79.1,62.2 296.9,-188.1 460.1,-191.4 460.3,-191.2 683.4,-31.2 844.1,-22.4 
				844.3,-22.2 868.5,-1.6 975.7,-14 1018.1,17.5 1199,31.4 1198.9,33 1017.5,19.1 1017.3,19 975.3,-12.3 868,0.2 843.5,-20.7 
				682.8,-29.5 682.6,-29.7 459.6,-189.7 297.6,-186.4 80.1,63.6 			"/>
		</g>
		<g>
			<polygon class="st0" points="3.4,102.6 2.8,101.1 76.6,69.3 292.4,-175.8 292.7,-175.8 456.8,-190.5 457.1,-190.3 680.9,-28.2 
				842.5,-5.7 867,15 974.3,-10.1 1017.4,21.1 1199,45.8 1198.7,47.4 1016.7,22.7 973.9,-8.3 866.6,16.8 841.8,-4.2 680.2,-26.6 
				680.1,-26.7 456.3,-188.7 293.2,-174.2 77.6,70.7 77.4,70.7 			"/>
		</g>
		<g>
			<polygon class="st0" points="3.6,112.4 2.9,110.9 74.1,76.4 287.8,-163.5 288.1,-163.6 453.5,-189.6 453.8,-189.4 678.3,-25.1 
				840.8,10.9 865.6,31.6 972.8,-6.2 1016.7,24.8 1198.9,60.2 1198.6,61.8 1016,26.4 1015.8,26.3 972.5,-4.3 865.2,33.5 864.9,33.2 
				840.1,12.4 677.6,-23.6 677.5,-23.7 453.1,-187.8 288.7,-161.9 75.1,77.7 75,77.8 			"/>
		</g>
		<g>
			<polygon class="st0" points="3.8,122.2 3,120.8 71.6,83.5 283.3,-151.2 283.6,-151.3 450.2,-188.7 450.5,-188.4 675.8,-22.1 
				839.2,27.5 864.1,48.2 971.3,-2.3 1015.9,28.4 1198.9,74.6 1198.5,76.2 1015.2,30 1015.1,29.9 971.2,-0.4 863.9,50.2 838.3,29 
				675,-20.6 674.9,-20.7 449.9,-186.9 284.2,-149.7 72.6,84.8 72.5,84.9 			"/>
		</g>
		<g>
			<polygon class="st0" points="3.9,132.1 3.1,130.6 69,90.6 278.8,-138.9 279.1,-139 446.9,-187.8 673.2,-19.1 837.5,44.2 
				837.6,44.3 862.7,64.8 969.8,1.7 1015.2,32.1 1198.9,89 1198.4,90.6 1014.4,33.6 1014.3,33.5 969.8,3.6 862.5,66.8 836.6,45.6 
				672.4,-17.7 672.3,-17.7 446.6,-185.9 279.7,-137.5 70.1,91.9 70,91.9 			"/>
		</g>
		<g>
			<polygon class="st0" points="4.1,141.9 3.2,140.5 66.5,97.7 274.3,-126.7 274.5,-126.7 443.7,-186.9 670.7,-16.1 835.8,60.8 
				835.9,60.9 861.2,81.4 968.4,5.6 1014.4,35.7 1198.8,103.4 1198.3,105 1013.7,37.2 968.4,7.6 861.1,83.5 834.9,62.2 669.8,-14.7 
				669.7,-14.7 443.4,-185 275.3,-125.2 67.6,98.9 67.5,99 			"/>
		</g>
		<g>
			<polygon class="st0" points="4.3,151.7 3.3,150.4 64.1,104.7 269.8,-114.4 270,-114.4 440.4,-186 440.8,-185.7 668.2,-13.1 
				834.1,77.4 859.7,98 966.9,9.5 1013.8,39.4 1198.8,117.8 1198.1,119.4 1013,40.9 967,11.6 859.8,100.1 833.2,78.8 667.3,-11.7 
				440.1,-184 270.8,-113 65.2,106 			"/>
		</g>
		<g>
			<polygon class="st0" points="4.4,161.5 3.3,160.2 61.5,111.8 265.3,-102.1 265.5,-102.2 437.1,-185.1 665.6,-10.1 832.5,94 
				858.3,114.6 965.5,13.5 1013,43 1198.8,132.2 1198,133.7 1012.2,44.5 965.7,15.6 858.4,116.8 831.5,95.4 664.7,-8.7 
				436.9,-183.1 266.3,-100.7 62.7,113 			"/>
		</g>
		<g>
			<polygon class="st0" points="4.6,171.3 3.4,170.1 59,118.9 260.8,-89.8 260.9,-89.9 433.8,-184.2 434.2,-183.8 663,-7.1 
				830.8,110.7 856.8,131.2 964,17.4 1012.2,46.7 1198.7,146.7 1197.9,148.1 1011.4,48.1 964.3,19.5 857,133.4 829.8,112 662,-5.7 
				433.6,-182.2 261.8,-88.5 60.2,120.1 			"/>
		</g>
		<g>
			<polygon class="st0" points="4.7,181.1 3.5,180 256.3,-77.5 256.4,-77.6 430.5,-183.3 431,-182.9 855.4,147.8 962.5,21.3 
				963.1,21.7 1198.7,161.1 1197.8,162.5 962.9,23.5 855.6,150.1 855,149.6 430.4,-181.2 257.4,-76.2 			"/>
		</g>
		<g>
			<polygon class="st0" points="4.6,184.9 3.4,183.7 252.2,-64.6 252.3,-64.7 428.5,-171.2 428.9,-170.8 837.6,152.5 963.3,29.7 
				963.8,30.1 1198.7,167.4 1197.8,168.8 963.5,31.8 837.7,154.7 837.1,154.2 428.3,-169.2 253.2,-63.3 			"/>
		</g>
		<g>
			<polygon class="st0" points="4.4,188.6 3.2,187.4 248.1,-51.8 248.1,-51.8 426.4,-159.2 426.9,-158.8 819.7,157.2 964,38.1 
				964.5,38.4 1198.7,173.7 1197.8,175.1 964.1,40.1 819.8,159.3 819.2,158.9 426.3,-157.1 249.1,-50.4 			"/>
		</g>
		<g>
			<polygon class="st0" points="4.2,192.3 3,191.1 243.9,-38.9 244,-38.9 424.4,-147.1 424.8,-146.7 801.9,161.9 964.7,46.5 
				1198.6,180 1197.8,181.5 964.8,48.5 801.8,164 801.3,163.6 424.2,-145.1 245,-37.5 			"/>
		</g>
		<g>
			<polygon class="st0" points="4,196.1 2.9,194.8 239.8,-26 239.9,-26 422.3,-135.1 422.8,-134.7 784.1,166.6 965.4,54.9 
				965.8,55.1 1198.6,186.3 1197.8,187.8 965.4,56.8 783.9,168.7 422.2,-133 240.8,-24.6 			"/>
		</g>
		<g>
			<polygon class="st0" points="3.8,199.8 2.7,198.5 235.6,-13 420.3,-123 420.7,-122.6 766.2,171.3 966.1,63.3 966.5,63.5 
				1198.6,192.6 1197.8,194.1 966,65.2 766,173.3 765.6,172.9 420.1,-121 236.6,-11.7 			"/>
		</g>
		<g>
			<polygon class="st0" points="3.6,203.5 2.5,202.3 231.5,-0.2 418.2,-111 748.4,176 966.7,71.6 967.1,71.9 1198.6,199 
				1197.8,200.4 966.7,73.5 748.1,178 747.7,177.6 418,-108.9 232.5,1.2 			"/>
		</g>
		<g>
			<polygon class="st0" points="3.4,207.2 2.3,206 227.4,12.7 416.2,-99 416.6,-98.5 730.5,180.7 967.4,80 1198.6,205.3 
				1197.8,206.8 967.3,81.9 730.2,182.6 729.8,182.3 416,-96.9 228.3,14.1 			"/>
		</g>
		<g>
			<polygon class="st0" points="1197.8,213.1 968,90.2 712.3,187.3 711.9,187 413.9,-84.8 224.2,27 3.2,211 2.2,209.7 223.2,25.6 
				414.1,-86.9 712.6,185.4 968.1,88.4 968.4,88.6 1198.6,211.6 			"/>
		</g>
		<g>
			<polygon class="st0" points="1197.8,219.4 968.6,98.6 694.4,192 694,191.6 411.9,-72.8 220.1,39.9 3.1,214.7 2,213.4 219.1,38.5 
				412.1,-74.9 412.5,-74.4 694.8,190.1 968.8,96.8 969.1,96.9 1198.6,217.9 			"/>
		</g>
		<g>
			<polygon class="st0" points="1197.8,225.7 969.3,106.9 676.5,196.7 676.1,196.3 409.8,-60.7 215.9,52.7 2.9,218.4 1.8,217.1 
				215,51.4 410,-62.8 410.5,-62.4 676.9,194.8 969.5,105.1 969.8,105.3 1198.6,224.2 			"/>
		</g>
		<g>
			<polygon class="st0" points="1197.9,232 969.9,115.3 658.6,201.3 658.2,201 407.7,-48.7 211.8,65.6 2.7,222.2 1.7,220.8 
				210.9,64.2 408,-50.8 408.5,-50.3 659.1,199.5 970.1,113.5 970.4,113.7 1198.6,230.5 			"/>
		</g>
		<g>
			<polygon class="st0" points="1197.9,238.4 970.6,123.6 640.7,206 640.3,205.6 405.7,-36.6 207.7,78.5 2.5,225.9 1.5,224.6 
				206.8,77.1 406,-38.7 641.2,204.1 970.8,121.9 971.1,122 1198.6,236.9 			"/>
		</g>
		<g>
			<polygon class="st0" points="1197.9,244.7 971.3,132 622.8,210.7 622.4,210.3 403.6,-24.6 203.5,91.4 2.3,229.6 1.3,228.3 
				202.6,90 403.9,-26.7 404.4,-26.2 623.3,208.8 971.5,130.2 1198.6,243.2 			"/>
		</g>
		<g>
			<polygon class="st0" points="1197.9,251 971.9,140.4 604.9,215.3 604.6,215 401.5,-12.5 199.4,104.3 2.1,233.4 1.2,232 
				198.5,102.9 401.9,-14.7 402.3,-14.2 605.5,213.5 972.1,138.6 972.4,138.7 1198.6,249.5 			"/>
		</g>
		<g>
			<polygon class="st0" points="1197.9,257.3 972.6,148.7 587,220 586.7,219.7 399.5,-0.5 195.3,117.2 1.9,237.1 1,235.7 
				194.4,115.8 399.8,-2.6 400.3,-2.1 587.6,218.2 972.8,147 973.1,147.1 1198.6,255.8 			"/>
		</g>
		<g>
			<polygon class="st0" points="1197.9,263.6 973.2,157.1 569.1,224.7 397.4,11.6 191.1,130.1 1.7,240.9 0.9,239.4 190.3,128.6 
				397.8,9.4 398.3,10 569.8,222.9 973.5,155.3 973.7,155.5 1198.6,262.1 			"/>
		</g>
		<g>
			<polygon class="st0" points="1197.9,270 973.9,165.4 551.2,229.4 550.9,229 395.3,23.6 187,143 1.5,244.6 0.7,243.1 186.2,141.5 
				395.8,21.4 551.9,227.6 974.2,163.7 974.4,163.8 1198.6,268.4 			"/>
		</g>
		<g>
			<polygon class="st0" points="1197.9,276.3 974.6,173.8 533.3,234 533,233.6 393.3,35.7 182.9,155.9 1.3,248.3 0.6,246.8 
				182.1,154.4 393.7,33.5 394.2,34.1 534,232.3 974.8,172.1 975,172.2 1198.6,274.8 			"/>
		</g>
		<g>
			<path class="st0" d="M1197.8,282.2c-1.8-1-218.5-96.3-225.6-96.4c-3.4,0.1-102.1,13.4-103.1,13.5l-340.1,38.1l-35.9-46.9
				L382.3,49.9L177.7,167.3L1.4,257.9l-0.8-1.5l176.3-90.6L382.7,47.7l111.8,141.7l35.3,46.2l339.2-38c4.1-0.5,99.7-13.4,103.2-13.5
				c0,0,0,0,0,0c6.7,0,225.9,95.8,226.7,96.9l-0.7,0.5l-0.8-0.2l0.8,0.2L1197.8,282.2z"/>
		</g>
		<g>
			<path class="st0" d="M1197.8,288.1c-1.6-0.9-213.7-90.4-227.9-90.4c0,0-0.1,0-0.1,0c-6.9,0.3-102.7,12.9-103.6,13l-341.2,29.9
				l-37.5-45.2L371.3,64.1L172.6,178.8L1.4,267.5l-0.8-1.5l171.2-88.7L371.7,62l0.5,0.5l116.6,131.9l36.9,44.5l340.3-29.8
				c3.9-0.5,96.8-12.7,103.8-13c6.7-0.2,68.5,24.2,119.1,44.8c44,17.9,109.5,45.2,110.1,46l0.3,0.3l-0.1,0.4l-1.6-0.5l0.8,0.2
				L1197.8,288.1z"/>
		</g>
		<g>
			<path class="st0" d="M1197.7,294c-1.5-0.9-209-84.3-230.2-84.3c-0.1,0-0.2,0-0.3,0c-10.4,0.4-103.3,12.4-104.2,12.5L520.7,244
				l-39-43.4L360.4,78.4L167.5,190.3l-166,86.9l-0.8-1.5l166-86.9l194-112.5l122.2,123.1l38.5,42.9l341.5-21.7
				c3.8-0.5,93.8-12.1,104.3-12.5c0.1,0,0.2,0,0.3,0c10.9,0,72.3,22.5,122.2,41.6c47.2,18,108.4,42.2,109.2,43.2l0.3,0.3l-0.1,0.4
				l-1.6-0.5l0.8,0.2L1197.7,294z"/>
		</g>
		<g>
			<path class="st0" d="M1197.7,300c-1.9-1.2-53.3-20.8-108.8-40.5c-68.9-24.4-112.7-37.8-123.7-37.8c-0.2,0-0.3,0-0.5,0
				c-13.9,0.6-103.9,11.9-104.8,12l-343.5,13.6l-40.6-41.7l-126.5-113l-187,109.1l-160.8,85l-0.8-1.5l160.8-85L349.6,90.6
				l127.5,113.8l40.1,41.2l342.7-13.5c0.8-0.1,90.9-11.4,104.9-12c0.2,0,0.4,0,0.5,0c14.4,0,76,20.8,125.5,38.3
				c46.6,16.5,107.2,39.2,108.2,40.4l0.3,0.3l-0.1,0.4l-0.8-0.2L1197.7,300z"/>
		</g>
		<g>
			<path class="st0" d="M1197.7,305.9c-2-1.3-51.8-19.2-107.8-37.6c-69.6-22.8-114.9-35.1-127.6-34.6
				c-17.4,0.7-104.5,11.4-105.4,11.5l-344.7,5.4l-42.1-39.9L338.4,106.8L157.2,213.2L1.6,296.3l-0.8-1.5l155.6-83.1l182.2-106.9
				l132.7,104.6l41.7,39.5l343.9-5.4c0.8-0.1,88-10.8,105.4-11.5c16.6-0.7,79.6,18.7,129.5,35.1c49.5,16.3,106.2,36.3,107.2,37.6
				l0.3,0.3l-0.1,0.4l-0.8-0.2L1197.7,305.9z"/>
		</g>
		<g>
			<path class="st0" d="M1197.7,311.8c-2-1.3-51.4-18-106.8-34.7c-69.3-20.9-115.8-32-131.1-31.4c-20.8,0.9-105.1,10.9-105.9,11
				l-345.8-2.8l-43.7-38.2l-137-94.6L152.1,224.7L1.6,305.9l-0.8-1.5l150.4-81.3l176.3-104.1l137.9,95.3l43.3,37.8l345.1,2.8
				c0.7-0.1,85.1-10.1,106-11c19.9-0.8,83.3,16.8,132.9,31.8c49.9,15.1,105.1,33.3,106.2,34.8l0.3,0.3l-0.1,0.4l-1.6-0.5l0.8,0.2
				L1197.7,311.8z"/>
		</g>
		<g>
			<path class="st0" d="M1197.7,317.7c-2.1-1.4-49.8-16.5-105.7-31.9c-39.9-11-110.5-29.2-134.6-28.2c-24.3,1-105.7,10.4-106.5,10.5
				l-346.9-11l-0.2-0.2l-45-36.3l-142.2-85.4L147,236.1L1.7,315.6l-0.8-1.5l145.3-79.4l170.4-101.3l0.4,0.3l142.7,85.8l44.9,36.2
				l346.2,11c0.7-0.1,82.1-9.5,106.5-10.5c23.2-1,87,15,136.4,28.6c50.7,13.9,104,30.4,105.2,32l0.3,0.3l-0.1,0.4l-1.6-0.5l0.8,0.2
				L1197.7,317.7z"/>
		</g>
		<g>
			<path class="st0" d="M1.7,325.2l-0.8-1.5L141,246.1l164.5-98.5l148.4,76.8l46.4,34.5L847.7,278c0.7-0.1,79.2-8.8,107.1-10
				c27.9-1.2,99.6,15.4,139.9,25.4c51.1,12.7,102.9,27.4,104.2,29.1l0.3,0.3l-0.1,0.5l-1.6-0.5l0.8,0.2l-0.6,0.6
				c-6-4.1-195-56-242.8-54c-27.8,1.2-106.3,9.9-107.1,10l-348.1-19.1l-46.7-34.7l-147.4-76.3l-163.7,98L1.7,325.2z"/>
		</g>
		<g>
			<path class="st0" d="M1.8,334.8L1,333.3l134.9-75.7l158.6-95.7l0.4,0.2L448,229.4l48,32.8l348.6,27.3c0.6-0.1,76.3-8.2,107.6-9.5
				c31.5-1.3,103.3,13.3,143.4,22.2c47.7,10.5,101.7,24.3,103.2,26.3l0.3,0.3l-0.1,0.5l-0.8-0.2l-0.6,0.6
				c-2.3-1.6-48.7-14-103.7-26.1c-39.5-8.7-110.5-23.1-141.7-21.8c-31.3,1.3-106.9,9.4-107.7,9.5l-349.2-27.3l-48.3-33l-152.7-67.1
				l-157.9,95.3L1.8,334.8z"/>
		</g>
		<g>
			<path class="st0" d="M1.8,344.4L1,342.9l129.7-73.8l152.7-92.9l0.4,0.1l158.5,58.1l0.1,0l49.5,31L841.5,301
				c2.9-0.3,74-7.5,108.3-9c35.1-1.5,107.1,11.2,146.8,19c48.1,9.3,100.6,21.4,102.3,23.5l0.3,0.3l-0.1,0.5l-0.8-0.2l-0.6,0.5
				c-4.5-3.2-186.8-44.4-247.8-41.9c-34.8,1.5-107.5,8.9-108.2,9l-0.1,0l-0.1,0l-350.2-35.5L441.5,236l-158-57.9l-152,92.5
				L1.8,344.4z"/>
		</g>
		<g>
			<path class="st0" d="M1.9,354l-0.8-1.4l124.5-72l146.8-90.1l164.2,49.1l51.1,29.3l350.9,43.6c2.9-0.3,71.2-6.9,108.8-8.5
				c38.7-1.6,110.8,9.2,150.3,15.8c48.5,8.1,99.6,18.5,101.3,20.6l0.3,0.3l-0.1,0.5l-1.6-0.5l0.8,0.2l-0.6,0.5
				c-2.2-1.6-45.6-11-101.6-20.3c-39.1-6.5-110.4-17.1-148.7-15.5c-38.2,1.6-108.1,8.4-108.8,8.5l-0.1,0l-0.1,0l-351.3-43.7
				l-0.1-0.1L435.8,241l-163.2-48.7L126.4,282L1.9,354z"/>
		</g>
		<g>
			<path class="st0" d="M1.9,363.6l-0.8-1.4L120.4,292l140.9-87.3l0.3,0.1l169,39.7l0.1,0l52.6,27.6l352,51.8
				c3-0.3,68.4-6.2,109.4-8c71.6-3,250.9,26.2,254.1,30.3l0.3,0.3l-0.1,0.5l-0.8-0.2l-0.6,0.5c-5.3-3.8-178.9-32.8-252.7-29.7
				c-41.7,1.7-108.7,7.9-109.4,8l-0.1,0l-0.1,0l-352.4-51.8l-52.8-27.7l-168.4-39.5l-140.3,86.9L1.9,363.6z"/>
		</g>
		<g>
			<path class="st0" d="M2,373.2l-0.9-1.4l114.2-68.2l135-84.5l0.3,0.1l174.2,30.5l0.1,0l54.2,26l353.2,59.9c3-0.3,65.6-5.6,110-7.5
				c77.2-3.2,253.1,19.8,256.5,24.2l0.3,0.3l-0.1,0.5l-1.6-0.5l0.8,0.2l-0.6,0.5c-4.2-2.9-173.3-27.1-255.2-23.7
				c-45.2,1.9-109.3,7.4-110,7.5l-0.1,0l-0.1,0l-353.5-60l-0.1-0.1l-54.2-26l-173.7-30.4l-134.5,84.2L2,373.2z"/>
		</g>
		<g>
			<path class="st0" d="M2.1,382.8l-0.9-1.4l109-66.4l129.1-81.7l0.3,0l179.5,21.2l55.9,24.3l354.4,68.1c3-0.2,62.8-5,110.5-7
				c83.5-3.5,255.7,13.9,259,18.2l0.3,0.3l-0.1,0.5l-0.8-0.2l-0.6,0.5c-4.5-3.1-168.1-21.3-257.7-17.6c-48.7,2-109.9,6.9-110.6,7
				l-0.1,0l-0.1,0l-354.7-68.2l-0.1,0l-55.8-24.2L239.7,235L111,316.4L2.1,382.8z"/>
		</g>
		<g>
			<path class="st0" d="M2.1,392.4l-0.9-1.4L105,326.4l123.2-78.9l0.3,0l184.7,12l0.1,0l57.4,22.6l355.5,76.3
				c3-0.2,60-4.3,111.1-6.5c88.3-3.7,257.9,7.5,261.5,12.1l0.3,0.3l-0.1,0.5l-1.6-0.5l0.8,0.2l-0.6,0.5
				c-4.6-3.2-164.1-15.6-260.2-11.6c-52.2,2.2-110.6,6.4-111.1,6.5l-0.1,0l-0.1,0l-355.7-76.3l-57.5-22.6l-184.2-12l-122.8,78.6
				L2.1,392.4z"/>
		</g>
		<g>
			<path class="st0" d="M2.2,402l-0.9-1.4l98.6-62.7l117.4-76.1l0.3,0l190,2.8l0.1,0l59,20.9l356.7,84.4c3-0.2,57.2-3.7,111.6-5.9
				c95.5-4,260.5,1.6,264,6.1l0.3,0.3l-0.1,0.6l-0.8-0.2l-0.6,0.4c-5.5-3.7-165.7-9.5-262.7-5.5c-55.7,2.3-111.2,5.9-111.7,6l-0.1,0
				l-0.1,0l-356.9-84.5l-59-20.8l-189.4-2.8l-116.9,75.8L2.2,402z"/>
		</g>
		<g>
			<path class="st0" d="M2.2,411.6l-0.9-1.4l93.4-60.8L206.2,276l0.2,0l195.2-6.5l0.1,0l60.6,19.2l357.8,92.6
				c3-0.2,54.5-3,112.2-5.4c95.8-4,262.9-4.6,266.5,0l0.3,0.3l-0.1,0.6l-1.6-0.5l0.8,0.2l-0.6,0.4c-5.4-3.6-159.6-3.8-265.2,0.6
				c-59.1,2.5-111.8,5.4-112.3,5.5l-0.1,0l-0.1,0l-358-92.7l-60.5-19.1l-194.7,6.4L95.7,350.8L2.2,411.6z"/>
		</g>
		<g>
			<path class="st0" d="M2.3,421.2l-0.9-1.4l193.8-129.5l0.2,0l200.4-15.7l0.1,0l421.1,118.2c4.1-0.2,96.7-4.5,188.6-8
				c189.8-7.2,192.2-4.2,193.1-3c0.2,0.3,0.3,0.6,0.2,0.9l-1.6-0.5c-0.1,0.3,0.1,0.6,0.2,0.7c-7.4-4.7-277.2,6.8-380.5,11.6l-0.1,0
				l-0.1,0L395.7,276.3l-199.9,15.6L2.3,421.2z"/>
		</g>
		<g>
			<path class="st0" d="M2.1,436.6l-0.8-1.4L196.7,313l200.2-14.8l0.1,0l421,111.7c3.9-0.2,96.4-4.2,188.3-7.5
				c189.4-6.8,191.7-3.9,192.5-2.8l0.3,0.3l-0.1,0.6l-1.5-0.5l0.8,0.2l-0.6,0.4c-7.2-4.5-276.5,6.4-379.7,10.9l-0.1,0l-0.1,0
				l-421-111.7l-199.5,14.8L2.1,436.6z"/>
		</g>
		<g>
			<path class="st0" d="M1.9,452.1l-0.8-1.3l197-115.1l0.2,0l199.5-13.9l0.1,0l420.9,105.1c63-2.6,375.6-15.3,379.9-9.7l0.2,0.3
				l-0.1,0.5l-1.5-0.4l0.7,0.2l-0.5,0.4c-6.8-4.1-250.8,4.9-378.8,10.3l-0.1,0l-0.1,0L397.7,323.3l-199.1,13.9L1.9,452.1z"/>
		</g>
		<g>
			<path class="st0" d="M1.7,467.6L1,466.3l198.6-107.9l0.2,0l199-13.1l0.1,0l420.7,98.5c62.8-2.5,374.9-14.4,379-9.1l0.2,0.3
				l-0.1,0.5l-1.4-0.4l0.7,0.2l-0.5,0.4c-6.6-3.8-250.1,4.6-378,9.6l-0.1,0l-0.1,0l-420.7-98.5l-198.7,13L1.7,467.6z"/>
		</g>
		<g>
			<path class="st0" d="M1.5,483l-0.6-1.2l200.2-100.7l0.1,0l198.6-12.2l0.1,0l420.6,92c62.7-2.3,374.3-13.4,378.1-8.5l0.2,0.3
				l-0.1,0.5l-1.3-0.4l0.7,0.2l-0.5,0.4c-6.4-3.6-249.5,4.3-377.1,9l-0.1,0l-0.1,0l-420.6-92l-198.3,12.2L1.5,483z"/>
		</g>
		<g>
			<path class="st0" d="M1.3,498.5l-0.6-1.2l201.9-93.5l0.1,0l198.1-11.3l0.1,0l420.5,85.4c62.2-2.1,373.6-12.5,377.1-7.9l0.2,0.3
				l-0.1,0.4l-1.3-0.4l0.6,0.2l-0.4,0.4c-6.2-3.4-248.8,4-376.3,8.3l-420.6-85.4L203,405.1L1.3,498.5z"/>
		</g>
		<g>
			<path class="st0" d="M1.2,514l-0.5-1.2l203.5-86.3l0.1,0l197.6-10.5l420.5,78.8c62.1-2,372.9-11.5,376.2-7.3l0.2,0.3l-0.1,0.4
				l-0.6-0.2l-0.4,0.4c-6-3.1-248.2,3.6-375.4,7.7l-420.5-78.8l-197.3,10.5L1.2,514z"/>
		</g>
		<g>
			<path class="st0" d="M1,529.4l-0.4-1.1l205.1-79.1l0.1,0l197.2-9.6l420.4,72.3c62-1.8,372.3-10.6,375.3-6.7l0.2,0.2l-0.1,0.4
				l-1.1-0.3l0.6,0.2l-0.4,0.4c-5.8-2.9-247.5,3.3-374.5,7l-420.4-72.3l-196.9,9.6L1,529.4z"/>
		</g>
		<g>
			<path class="st0" d="M0.8,544.9l-0.4-1.1l206.7-71.9l0.1,0l196.7-8.7l420.2,65.7c0.8,0,93.8-2.5,185.9-4.5
				c186.6-4,187.9-2.3,188.5-1.6l0.2,0.2l-0.1,0.3l-1.1-0.3l0.5,0.2l-0.3,0.4c-5.5-2.6-246.9,3-373.7,6.4l-420.2-65.7L207.3,473
				L0.8,544.9z"/>
		</g>
		<g>
			<path class="st0" d="M0.6,560.3l-0.3-1l208.3-64.7l0.1,0l196.3-7.8l420,59.1c0.8,0,93.7-2.2,185.6-4
				c186.2-3.6,187.4-2.1,187.9-1.4l0.2,0.2l-0.1,0.3l-1-0.3l0.5,0.2l-0.3,0.4c-5.3-2.4-246.2,2.7-372.8,5.7l-420-59.1l-196.1,7.8
				L0.6,560.3z"/>
		</g>
		<g>
			<path class="st0" d="M0.5,575.8l-0.3-0.9L210,517.4l195.9-7l419.9,52.6c0.9,0,93.5-2,185.2-3.6c185.8-3.2,186.9-1.8,187.3-1.2
				l0.2,0.2l-0.1,0.3l-0.9-0.3l0.5,0.1l-0.3,0.4c-5-2.1-245.5,2.4-372,5.1l-419.9-52.6l-195.7,7L0.5,575.8z"/>
		</g>
		<g>
			<path class="st0" d="M0.3,591.2l-0.2-0.9l211.4-50.3L407,534l419.7,46c0.9,0,93.4-1.7,184.9-3.1c185.4-2.8,186.4-1.6,186.8-1.1
				l0.1,0.2l-0.1,0.2l-0.9-0.3l0.4,0.1l-0.2,0.4c-4.7-1.9-244.8,2.1-371.1,4.4l-419.7-46L211.6,541L0.3,591.2z"/>
		</g>
		<g>
			<path class="st0" d="M0.1,606.7l-0.2-0.8l213-43.1l195-5.2l419.6,39.4c0.9,0,93.2-1.5,184.6-2.7c185-2.4,185.8-1.4,186.2-0.9
				l0.1,0.2l-0.1,0.2l-0.8-0.2l0.4,0.1l-0.2,0.3c-4.4-1.6-244.1,1.8-370.3,3.8L408,558.4l-194.9,5.2L0.1,606.7z"/>
		</g>
		<g>
			<path class="st0" d="M-0.1,622.1l-0.1-0.8l214.7-35.9l194.5-4.4L828.4,614c0.9,0,93.1-1.2,184.2-2.2c184.6-2,185.3-1.1,185.6-0.7
				l0.1,0.2l-0.1,0.2l-0.7-0.2l0.4,0.1l-0.2,0.3c-5.1-1.7-365.8,3.1-369.4,3.2L409,581.9l-194.4,4.4L-0.1,622.1z"/>
		</g>
		<g>
			<path class="st0" d="M-0.2,637.6l-0.1-0.7L216,608.2l194.1-3.5L829.3,631c0.9,0,92.9-1,183.9-1.8c184.2-1.6,184.8-0.9,185-0.6
				l0.1,0.1l0,0.2l-0.3-0.1l0,0l0,0l-0.1,0.3c-4.7-1.4-364.9,2.5-368.5,2.5L410,605.4l-194,3.5L-0.2,637.6z M1197.6,628.7l0.3,0.1v0
				L1197.6,628.7z"/>
		</g>
		<g>
			<path class="st0" d="M-0.4,653.1l-0.1-0.6l217.9-21.6l193.6-2.6L830.1,648c0.9,0,92.8-0.7,183.6-1.3
				c183.8-1.2,184.2-0.7,184.5-0.4l0.1,0.1l0,0.2l-0.3-0.1l0,0l-0.1,0.3c-4.2-1-364,1.9-367.7,1.9L411,628.9l-193.6,2.6L-0.4,653.1z
				"/>
		</g>
		<g>
			<path class="st0" d="M-0.5,668.5l0-0.6l219.5-14.4l193.1-1.7L831,665c0.9,0,92.6-0.5,183.2-0.9c183.5-0.8,183.7-0.5,183.9-0.2
				l0.1,0.1l0,0.1l-0.3-0.1l0,0l-0.1,0.3c-3.5-0.7-363.2,1.2-366.8,1.3l-418.9-13.1l-193.1,1.7L-0.5,668.5z"/>
		</g>
		<g>
			<path class="st0" d="M-0.7,684l0-0.5l221.1-7.2l192.7-0.9l418.8,6.6c0.9,0,92.5-0.2,182.9-0.4c183.1-0.4,183.2-0.2,183.3-0.1
				l-0.4,0.3l0.2-0.1l0,0.2c-2.7-0.4-362.3,0.6-366,0.6l-418.8-6.6l-192.7,0.9L-0.7,684z"/>
		</g>
		<g>
			<rect x="-0.9" y="699" class="st0" width="1198.7" height="0.4"/>
		</g>
	</g>
	<g>
		<g>
			<g>
				<rect x="-0.9" y="715.4" class="st0" width="1200.5" height="0.4"/>
			</g>
		</g>
		<g>
			<g>
				<rect x="-0.9" y="733.6" class="st0" width="1200.5" height="0.4"/>
			</g>
		</g>
		<g>
			<g>
				<rect x="-0.9" y="751.9" class="st0" width="1200.5" height="0.4"/>
			</g>
		</g>
		<g>
			<g>
				<rect x="-0.9" y="770.1" class="st0" width="1200.5" height="0.4"/>
			</g>
		</g>
		<g>
			<g>
				<rect x="-0.9" y="788.4" class="st0" width="1200.5" height="0.4"/>
			</g>
		</g>
		<g>
			<g>
				<rect x="-0.9" y="806.6" class="st0" width="1200.5" height="0.4"/>
			</g>
		</g>
		<g>
			<g>
				<rect x="-0.9" y="824.9" class="st0" width="1200.5" height="0.4"/>
			</g>
		</g>
		<g>
			<g>
				<rect x="-0.9" y="843.1" class="st0" width="1200.5" height="0.4"/>
			</g>
		</g>
		<g>
			<g>
				<rect x="-0.9" y="858.6" class="st0" width="1200.5" height="0.4"/>
			</g>
		</g>
	</g>
</g>
</svg>
